HIERARCHY
ROOT Hips
{
	OFFSET -0.001795 -0.223333 0.028219
	CHANNELS 6 Xposition Yposition Zposition Zrotation Yrotation Xrotation 
	JOINT LeftUpLeg
	{
		OFFSET 0.069520 -0.091406 -0.006815
		CHANNELS 3 Zrotation Yrotation Xrotation
		JOINT LeftLeg
		{
			OFFSET 0.034277 -0.375199 -0.004496
			CHANNELS 3 Zrotation Yrotation Xrotation
			JOINT LeftFoot
			{
				OFFSET -0.013596 -0.397961 -0.043693
				CHANNELS 3 Zrotation Yrotation Xrotation
				JOINT LeftToe
				{
					OFFSET 0.026358 -0.055791 0.119288
					CHANNELS 3 Zrotation Yrotation Xrotation
					End Site
					{
						OFFSET 0.000000 0.000000 0.000000
					}
				}
			}
		}
	}
	JOINT RightUpLeg
	{
		OFFSET -0.067670 -0.090522 -0.004320
		CHANNELS 3 Zrotation Yrotation Xrotation
		JOINT RightLeg
		{
			OFFSET -0.038290 -0.382569 -0.008850
			CHANNELS 3 Zrotation Yrotation Xrotation
			JOINT RightFoot
			{
				OFFSET 0.015774 -0.398415 -0.042312
				CHANNELS 3 Zrotation Yrotation Xrotation
				JOINT RightToe
				{
					OFFSET -0.025372 -0.048144 0.123348
					CHANNELS 3 Zrotation Yrotation Xrotation
					End Site
					{
						OFFSET 0.000000 0.000000 0.000000
					}
				}
			}
		}
	}
	JOINT Spine
	{
		OFFSET -0.002533 0.108963 -0.026696
		CHANNELS 3 Zrotation Yrotation Xrotation
		JOINT Spine1
		{
			OFFSET 0.005487 0.135180 0.001092
			CHANNELS 3 Zrotation Yrotation Xrotation
			JOINT Spine2
			{
				OFFSET 0.001457 0.052922 0.025425
				CHANNELS 3 Zrotation Yrotation Xrotation
				JOINT Neck
				{
					OFFSET -0.002778 0.213870 -0.042857
					CHANNELS 3 Zrotation Yrotation Xrotation
					JOINT Head
					{
						OFFSET 0.005152 0.064970 0.051349
						CHANNELS 3 Zrotation Yrotation Xrotation
						End Site
						{
							OFFSET 0.000000 0.000000 0.000000
						}
					}
				}
				JOINT LeftShoulder
				{
					OFFSET 0.078845 0.121749 -0.034090
					CHANNELS 3 Zrotation Yrotation Xrotation
					JOINT LeftArm
					{
						OFFSET 0.090977 0.030469 -0.008868
						CHANNELS 3 Zrotation Yrotation Xrotation
						JOINT LeftForeArm
						{
							OFFSET 0.259612 -0.012772 -0.027456
							CHANNELS 3 Zrotation Yrotation Xrotation
							JOINT LeftHand
							{
								OFFSET 0.249234 0.008986 -0.001171
								CHANNELS 3 Zrotation Yrotation Xrotation
								End Site
								{
									OFFSET 0.000000 0.000000 0.000000
								}
							}
						}
					}
				}
				JOINT RightShoulder
				{
					OFFSET -0.081759 0.118833 -0.038615
					CHANNELS 3 Zrotation Yrotation Xrotation
					JOINT RightArm
					{
						OFFSET -0.096012 0.032551 -0.009143
						CHANNELS 3 Zrotation Yrotation Xrotation
						JOINT RightForeArm
						{
							OFFSET -0.253742 -0.013329 -0.021401
							CHANNELS 3 Zrotation Yrotation Xrotation
							JOINT RightHand
							{
								OFFSET -0.255298 0.007772 -0.005559
								CHANNELS 3 Zrotation Yrotation Xrotation
								End Site
								{
									OFFSET 0.000000 0.000000 0.000000
								}
							}
						}
					}
				}
			}
		}
	}
}
MOTION
Frames: 17
Frame Time: 0.050000
-0.103641 0.938867 -0.348434 -0.267227 5.239895 1.234409 6.045166 -0.190643 -0.870502 -4.515826 0.420424 -2.930582 13.276703 25.685647 3.008439 0.000000 0.000000 0.000000 -8.873781 0.250549 -7.543592 2.133562 -0.100551 14.359514 -2.306316 -8.230194 9.668768 0.000000 0.000000 0.000000 7.750498 -1.367315 11.012284 -6.670386 2.181013 -26.172731 -0.790014 17.684733 31.076364 7.690189 1.912219 -37.325576 0.000000 0.000000 0.000000 -25.552399 -4.823957 -6.647510 -52.905218 8.104972 -10.260330 -10.356832 -31.274426 2.894436 0.000000 0.000000 0.000000 37.383870 -7.933434 1.414113 65.321492 1.600401 -10.274085 10.833187 42.307607 9.472177 0.000000 0.000000 0.000000 
-0.127088 0.937721 -0.348867 -0.039984 4.422284 1.403783 7.289174 -0.226651 -1.597395 -4.445106 0.430006 -1.972144 13.591700 26.202635 4.351041 0.000000 0.000000 0.000000 -7.967842 0.249057 -4.587752 3.105546 -0.308180 8.421841 -2.722201 -8.687238 7.339553 0.000000 0.000000 0.000000 8.399363 -1.396704 10.711321 -6.630139 2.175619 -25.988280 -0.427822 18.911894 31.282966 7.173267 2.223501 -36.593273 0.000000 0.000000 0.000000 -26.286205 -4.150886 -7.556988 -52.593442 9.244743 -10.548871 -8.958395 -29.885377 2.395799 0.000000 0.000000 0.000000 37.584392 -7.692540 1.878880 64.811417 1.667301 -10.317464 11.291655 41.750851 9.435212 0.000000 0.000000 0.000000 
-0.151514 0.938274 -0.350131 0.015124 4.451020 1.532367 8.474414 -0.270784 -2.986317 -3.754488 0.371898 -0.155110 13.477960 25.928152 5.815973 0.000000 0.000000 0.000000 -7.340652 0.198020 -2.531338 4.766034 -0.584495 4.182907 -2.670900 -8.445116 6.678945 0.000000 0.000000 0.000000 8.734582 -1.548946 11.562571 -6.605088 2.189325 -25.472551 0.030954 19.858355 31.278887 5.500236 3.192093 -37.213827 0.000000 0.000000 0.000000 -26.909682 -2.329788 -9.330890 -51.688682 10.868278 -10.786471 -10.274615 -30.786520 2.703499 0.000000 0.000000 0.000000 36.660542 -7.505098 2.374198 65.127875 2.405153 -9.826091 10.052417 41.038272 8.794320 0.000000 0.000000 0.000000 
-0.174388 0.940343 -0.353201 0.098131 7.035681 2.173102 9.963399 -0.372341 -5.554205 -3.694622 0.334963 1.453560 12.079462 23.617623 6.768880 0.000000 0.000000 0.000000 -5.603425 0.180601 -2.373033 4.674609 -0.597504 2.794116 -3.760113 -10.622577 6.858918 0.000000 0.000000 0.000000 9.358130 -1.788336 12.264837 -6.318052 2.088587 -26.646561 1.285541 19.835759 32.489309 4.991469 3.689252 -36.849988 0.000000 0.000000 0.000000 -28.824289 -2.885301 -10.540074 -50.203869 13.260584 -10.947212 -10.473191 -32.255898 2.787530 0.000000 0.000000 0.000000 35.584776 -7.804002 2.795408 64.035487 2.788277 -9.616956 11.317584 40.916228 9.336334 0.000000 0.000000 0.000000 
-0.193258 0.942370 -0.357026 0.396739 9.751567 2.362975 10.661521 -0.463679 -8.115362 -3.265946 0.236739 3.699468 10.528399 21.478413 10.929812 0.000000 0.000000 0.000000 -4.350602 0.151961 -2.061632 4.521550 -0.604404 1.856880 -4.873161 -12.854079 7.323050 0.000000 0.000000 0.000000 10.297677 -2.131403 13.240294 -6.461029 2.123559 -26.945043 1.404369 20.764869 32.471769 4.062941 4.546658 -38.000043 0.000000 0.000000 0.000000 -28.830297 -2.829931 -11.794790 -49.827934 14.646865 -11.094103 -12.034772 -34.265155 3.126236 0.000000 0.000000 0.000000 35.546554 -8.367745 3.457264 64.012850 4.056098 -9.053632 8.769419 39.524308 8.119303 0.000000 0.000000 0.000000 
-0.207227 0.944718 -0.360033 1.710334 13.043471 2.676575 9.343634 -0.674384 -11.822189 -3.036476 0.078896 7.459981 6.125699 15.663985 12.687951 0.000000 0.000000 0.000000 -4.650295 0.022261 -0.684966 4.701049 -0.651635 -0.599853 -6.141127 -15.329254 8.355772 0.000000 0.000000 0.000000 10.398495 -2.318043 13.795632 -6.086255 2.030362 -27.499118 1.794370 21.413516 33.010012 3.289436 5.267013 -38.792043 0.000000 0.000000 0.000000 -27.803303 -2.841690 -12.723397 -51.458151 16.237277 -12.084138 -14.979182 -36.407041 3.791632 0.000000 0.000000 0.000000 34.301058 -10.360838 2.796247 63.873109 4.417300 -8.542549 8.591835 37.915630 7.816732 0.000000 0.000000 0.000000 
-0.216921 0.948520 -0.361255 2.186404 14.123954 2.796809 8.050589 -0.874614 -14.195425 -3.277619 -0.005050 10.278841 0.053986 10.073169 22.764107 0.000000 0.000000 0.000000 -4.278023 -0.019076 -0.166498 4.405237 -0.619065 -1.737874 -6.523015 -15.968718 9.669026 0.000000 0.000000 0.000000 11.122168 -2.492821 13.918810 -6.392770 2.082052 -27.475438 2.947712 22.220678 33.085398 1.631036 6.134659 -38.060423 0.000000 0.000000 0.000000 -26.208393 -0.628458 -13.924710 -53.700150 17.191381 -13.499239 -18.911145 -37.113928 4.772850 0.000000 0.000000 0.000000 31.665524 -10.730659 2.544774 64.271706 3.280394 -8.393420 8.578023 37.249735 7.646182 0.000000 0.000000 0.000000 
-0.222529 0.951070 -0.360939 3.230680 15.442774 2.689641 5.213502 -1.121649 -14.610309 -6.725759 0.472800 11.975950 5.389718 17.854671 31.692212 0.000000 0.000000 0.000000 -5.056321 -0.155072 1.372911 4.700788 -0.670440 -3.570054 -6.932311 -16.640732 10.726471 0.000000 0.000000 0.000000 11.152904 -2.595806 14.327688 -6.623087 2.099931 -27.778694 5.012128 23.990689 33.833895 0.720720 6.889145 -37.173278 0.000000 0.000000 0.000000 -25.208580 -2.967408 -13.355708 -55.206625 17.899750 -14.225299 -18.309184 -36.585300 4.131203 0.000000 0.000000 0.000000 31.271865 -12.174755 2.216786 62.979925 2.325908 -8.702557 9.561015 37.756018 8.246827 0.000000 0.000000 0.000000 
-0.225562 0.952278 -0.359424 4.354273 17.636858 2.557604 2.834050 -1.284287 -14.152864 -8.985691 0.714978 14.651643 10.529707 22.974154 29.253865 0.000000 0.000000 0.000000 -5.636422 -0.322418 3.121863 4.463448 -0.675239 -5.138171 -7.800826 -18.140905 11.556779 0.000000 0.000000 0.000000 11.086308 -2.691997 14.660052 -5.963420 1.956332 -28.205904 4.154026 23.520854 33.653811 0.009488 7.337855 -35.359537 0.000000 0.000000 0.000000 -25.029494 -1.409716 -14.511602 -55.846677 18.484304 -14.810568 -17.322504 -35.097964 3.555859 0.000000 0.000000 0.000000 31.418141 -11.297520 3.305975 62.192237 2.992088 -8.530802 7.141977 37.209460 7.132148 0.000000 0.000000 0.000000 
-0.227344 0.951631 -0.357448 4.843167 19.256611 2.780511 1.360152 -1.322037 -13.417319 -8.836483 0.586779 15.332306 11.349322 23.692796 22.134093 0.000000 0.000000 0.000000 -6.089973 -0.406522 3.848428 5.015510 -0.761809 -5.937347 -8.448310 -19.296881 11.755597 0.000000 0.000000 0.000000 11.366639 -2.747795 14.443894 -6.478972 1.998800 -28.816498 4.923369 23.502453 34.491302 -1.534367 8.164394 -35.430334 0.000000 0.000000 0.000000 -24.714163 -2.655623 -14.122595 -56.564251 18.859193 -15.293336 -14.976176 -34.246496 2.710393 0.000000 0.000000 0.000000 33.234026 -11.347880 4.190555 59.773560 4.584197 -8.545104 4.987798 37.831503 6.564605 0.000000 0.000000 0.000000 
-0.228233 0.950136 -0.355253 4.589566 20.635740 2.910842 0.440444 -1.146550 -11.507045 -7.242681 0.315583 13.108455 10.933607 22.921262 17.125523 0.000000 0.000000 0.000000 -5.301992 -0.448390 4.085714 4.622209 -0.738543 -6.197731 -9.103610 -20.526623 11.724891 0.000000 0.000000 0.000000 11.754763 -2.812711 14.166994 -5.982266 1.887699 -29.117854 4.973613 22.935400 34.703324 -2.504627 8.592445 -35.270109 0.000000 0.000000 0.000000 -24.966925 -2.590822 -14.516971 -56.288968 19.003082 -15.159296 -13.756756 -32.926965 2.265173 0.000000 0.000000 0.000000 33.524561 -11.209360 4.565542 59.094696 5.481483 -8.303636 3.910571 37.392617 6.087185 0.000000 0.000000 0.000000 
-0.228661 0.948687 -0.353950 4.467890 21.091166 2.637831 -0.440433 -0.976987 -9.829060 -5.247646 0.091165 10.854949 10.519964 22.288215 16.034470 0.000000 0.000000 0.000000 -4.753491 -0.476379 4.297369 4.085441 -0.678228 -5.870307 -9.349083 -21.127587 11.248691 0.000000 0.000000 0.000000 11.785433 -2.904382 14.562822 -5.525444 1.720737 -30.193979 5.269385 23.576013 35.447256 -2.888139 8.887849 -35.745685 0.000000 0.000000 0.000000 -24.762507 -2.805147 -14.746007 -55.364602 19.305831 -14.894237 -13.580067 -31.617307 2.066712 0.000000 0.000000 0.000000 33.531168 -11.786718 4.432467 59.730258 6.166909 -7.958632 3.254714 37.619099 6.051063 0.000000 0.000000 0.000000 
-0.228227 0.948128 -0.353905 4.209318 21.979919 2.633740 -0.892149 -0.919323 -9.243945 -3.325135 -0.117231 9.302084 9.237798 20.813525 16.176387 0.000000 0.000000 0.000000 -4.198499 -0.481105 4.194169 3.750478 -0.643642 -5.620080 -9.804528 -21.965928 11.362908 0.000000 0.000000 0.000000 11.868635 -2.918612 14.410654 -5.485609 1.722711 -30.051107 5.110159 22.847410 35.387999 -2.815001 8.774073 -36.831012 0.000000 0.000000 0.000000 -25.076205 -2.834100 -14.853656 -54.788203 19.119904 -14.521828 -12.734082 -30.660762 1.847816 0.000000 0.000000 0.000000 33.485967 -11.379957 4.721920 60.108048 6.576641 -7.763470 2.826272 37.591290 5.899569 0.000000 0.000000 0.000000 
-0.226325 0.948359 -0.355192 3.954660 22.791150 2.680271 -1.587071 -0.793280 -8.105070 -1.799363 -0.187347 6.973595 8.639300 20.006789 15.557137 0.000000 0.000000 0.000000 -3.543832 -0.461257 3.894516 2.983277 -0.550286 -5.242523 -10.296129 -22.757693 11.826149 0.000000 0.000000 0.000000 12.108144 -2.968991 14.276356 -5.489417 1.709682 -30.060616 4.830174 22.063733 35.312678 -3.214871 8.843428 -37.263131 0.000000 0.000000 0.000000 -25.235184 -2.727622 -14.948666 -54.882265 19.314785 -14.613603 -12.525040 -30.636164 1.798436 0.000000 0.000000 0.000000 33.392846 -11.361471 4.670899 60.882368 6.904931 -7.522757 1.907661 37.631561 5.705886 0.000000 0.000000 0.000000 
-0.222846 0.948532 -0.357555 3.964340 23.049965 2.827402 -2.397651 -0.708374 -7.296986 -0.823315 -0.193483 5.190375 8.376015 19.643069 15.339233 0.000000 0.000000 0.000000 -3.658470 -0.439980 3.644766 2.748868 -0.520038 -5.116752 -10.476921 -22.986749 12.133211 0.000000 0.000000 0.000000 12.124630 -2.987550 14.283612 -5.344638 1.695039 -29.959798 4.636569 21.762370 35.344618 -3.008594 8.715523 -37.675792 0.000000 0.000000 0.000000 -25.025181 -2.771225 -14.757756 -56.061949 19.253962 -15.131531 -12.148263 -30.548890 1.687416 0.000000 0.000000 0.000000 33.183698 -11.373897 4.549366 61.025850 7.470872 -7.161193 1.108738 37.375150 5.410397 0.000000 0.000000 0.000000 
-0.218426 0.948367 -0.360541 3.637046 22.681220 2.975588 -2.953559 -0.649365 -6.750664 0.112347 -0.195537 3.635941 8.532076 19.786670 15.247886 0.000000 0.000000 0.000000 -3.695280 -0.380135 3.081023 2.706629 -0.505971 -4.868980 -10.359565 -22.706375 12.227698 0.000000 0.000000 0.000000 12.339883 -2.945431 13.895265 -5.759479 1.792110 -29.559019 4.693909 21.702094 35.404227 -2.805217 8.638114 -37.445126 0.000000 0.000000 0.000000 -25.217108 -2.951010 -14.681853 -56.562181 19.216117 -15.275294 -12.211984 -31.143668 1.742233 0.000000 0.000000 0.000000 33.121811 -10.873295 4.866355 61.716601 7.753427 -6.983487 0.054186 37.521265 5.127572 0.000000 0.000000 0.000000 
-0.213394 0.947975 -0.363246 3.536967 22.373324 2.799188 -3.459989 -0.563855 -6.006455 0.493424 -0.169251 2.565091 8.702276 19.923712 15.082956 0.000000 0.000000 0.000000 -4.077521 -0.368043 2.916567 2.816236 -0.507660 -4.441087 -10.222390 -22.470952 12.118219 0.000000 0.000000 0.000000 12.165813 -2.911325 13.964597 -5.589696 1.785660 -29.374109 4.471614 21.962120 35.494450 -2.552717 8.556406 -37.362224 0.000000 0.000000 0.000000 -25.048086 -2.979302 -14.598742 -57.478475 19.281359 -15.724744 -12.693004 -31.993920 1.879229 0.000000 0.000000 0.000000 33.273911 -10.538898 5.226910 62.288092 8.237273 -6.762337 -1.081306 37.455009 4.782192 0.000000 0.000000 0.000000 
